<svg width="113" height="16" viewBox="0 0 113 16" fill="none" xmlns="http://www.w3.org/2000/svg">
<path d="M112.859 0.454559V15H109.343V0.454559H112.859Z" fill="#2EA297"/>
<path d="M100.11 15H94.7337V0.454559H100.103C101.585 0.454559 102.861 0.745753 103.931 1.32814C105.006 1.90579 105.835 2.73912 106.417 3.82814C106.999 4.91242 107.29 6.20977 107.29 7.72018C107.29 9.23534 106.999 10.5374 106.417 11.6264C105.839 12.7154 105.013 13.5511 103.938 14.1335C102.863 14.7112 101.587 15 100.11 15ZM98.2493 12.0029H99.9752C100.79 12.0029 101.478 11.8655 102.042 11.5909C102.61 11.3116 103.039 10.8594 103.327 10.2344C103.621 9.60465 103.768 8.76659 103.768 7.72018C103.768 6.67378 103.621 5.84045 103.327 5.22018C103.034 4.59518 102.601 4.14537 102.028 3.87075C101.46 3.5914 100.759 3.45172 99.9254 3.45172H98.2493V12.0029Z" fill="#2EA297"/>
<path d="M82.3899 15V0.454559H92.532V3.30967H85.9055V6.29263H92.0135V9.15484H85.9055V12.1449H92.532V15H82.3899Z" fill="#2EA297"/>
<path d="M68.3789 3.30967V0.454559H80.6729V3.30967H76.2624V15H72.7965V3.30967H68.3789Z" fill="#2EA297"/>
<path d="M60.2859 15H54.9095V0.454559H60.2788C61.7608 0.454559 63.0368 0.745753 64.1069 1.32814C65.1817 1.90579 66.0103 2.73912 66.5927 3.82814C67.1751 4.91242 67.4663 6.20977 67.4663 7.72018C67.4663 9.23534 67.1751 10.5374 66.5927 11.6264C66.015 12.7154 65.1888 13.5511 64.114 14.1335C63.0392 14.7112 61.7631 15 60.2859 15ZM58.4251 12.0029H60.1509C60.9653 12.0029 61.6542 11.8655 62.2177 11.5909C62.7859 11.3116 63.2144 10.8594 63.5032 10.2344C63.7968 9.60465 63.9435 8.76659 63.9435 7.72018C63.9435 6.67378 63.7968 5.84045 63.5032 5.22018C63.2096 4.59518 62.7764 4.14537 62.2035 3.87075C61.6353 3.5914 60.9345 3.45172 60.1012 3.45172H58.4251V12.0029Z" fill="#2EA297"/>
<path d="M52.9031 4.0909V6.64772H46.021V4.0909H52.9031ZM47.4627 1.47726H50.9357V11.5696C50.9357 11.7827 50.9689 11.9555 51.0352 12.0881C51.1062 12.2159 51.208 12.3082 51.3406 12.365C51.4731 12.4171 51.6317 12.4432 51.8164 12.4432C51.949 12.4432 52.0887 12.4313 52.2354 12.4077C52.387 12.3793 52.5006 12.3556 52.5764 12.3366L53.1019 14.8437C52.9362 14.8911 52.7018 14.9503 52.3988 15.0213C52.1005 15.0923 51.743 15.1373 51.3264 15.1562C50.512 15.1941 49.8136 15.0994 49.2312 14.8722C48.6535 14.6401 48.2108 14.2803 47.9031 13.7926C47.6 13.3049 47.4532 12.6918 47.4627 11.9531V1.47726Z" fill="#004A74"/>
<path d="M38.1019 15.1846C37.4059 15.1846 36.788 15.0686 36.2482 14.8366C35.7132 14.5999 35.2894 14.2448 34.9769 13.7713C34.6692 13.2931 34.5153 12.6941 34.5153 11.9744C34.5153 11.3684 34.6218 10.857 34.8349 10.4403C35.0479 10.0237 35.3415 9.68512 35.7156 9.4247C36.0896 9.16429 36.5205 8.96779 37.0082 8.83522C37.4959 8.69791 38.0167 8.60558 38.5707 8.55823C39.1909 8.50141 39.6905 8.44222 40.0693 8.38067C40.448 8.31438 40.7227 8.22205 40.8931 8.10368C41.0683 7.98058 41.1559 7.80775 41.1559 7.58522V7.5497C41.1559 7.18512 41.0304 6.9034 40.7795 6.70453C40.5285 6.50567 40.19 6.40624 39.7639 6.40624C39.3046 6.40624 38.9353 6.50567 38.6559 6.70453C38.3765 6.9034 38.199 7.17802 38.1232 7.5284L34.9201 7.41476C35.0148 6.75188 35.2586 6.16003 35.6516 5.63919C36.0494 5.11362 36.5939 4.70169 37.2852 4.4034C37.9812 4.10037 38.8169 3.94885 39.7923 3.94885C40.4883 3.94885 41.1299 4.03171 41.717 4.19743C42.3041 4.35842 42.8155 4.59516 43.2511 4.90766C43.6867 5.21542 44.0229 5.59421 44.2596 6.04402C44.5011 6.49383 44.6218 7.00756 44.6218 7.58522V15H41.3548V13.4801H41.2695C41.0754 13.8494 40.8268 14.1619 40.5238 14.4176C40.2255 14.6733 39.8728 14.865 39.4656 14.9929C39.0631 15.1207 38.6085 15.1846 38.1019 15.1846ZM39.1744 12.9119C39.5484 12.9119 39.8846 12.8362 40.1829 12.6846C40.4859 12.5331 40.7274 12.3248 40.9073 12.0596C41.0872 11.7898 41.1772 11.4773 41.1772 11.1221V10.0852C41.0778 10.1373 40.957 10.1846 40.815 10.2273C40.6777 10.2699 40.5262 10.3101 40.3604 10.348C40.1947 10.3859 40.0243 10.419 39.8491 10.4474C39.6739 10.4758 39.5058 10.5019 39.3448 10.5256C39.0181 10.5776 38.7388 10.6581 38.5068 10.767C38.2795 10.8759 38.1043 11.018 37.9812 11.1932C37.8628 11.3636 37.8036 11.5672 37.8036 11.804C37.8036 12.1638 37.9315 12.4384 38.1871 12.6278C38.4476 12.8172 38.7766 12.9119 39.1744 12.9119Z" fill="#004A74"/>
<path d="M27.0188 15V4.09092H30.3924V6.07956H30.506C30.7049 5.35986 31.0292 4.82482 31.479 4.47444C31.9289 4.11933 32.4521 3.94177 33.0486 3.94177C33.2096 3.94177 33.3754 3.95361 33.5458 3.97728C33.7163 3.99622 33.8749 4.027 34.0217 4.06961V7.08808C33.8559 7.03126 33.6381 6.98628 33.3683 6.95314C33.1031 6.91999 32.8664 6.90342 32.658 6.90342C32.2461 6.90342 31.8744 6.99575 31.543 7.18041C31.2163 7.36033 30.9582 7.61365 30.7688 7.94035C30.5842 8.26232 30.4918 8.64111 30.4918 9.07672V15H27.0188Z" fill="#004A74"/>
<path d="M21.3423 10.2912V4.09091H24.8082V15H21.4986V12.9688H21.3849C21.1435 13.6364 20.7315 14.1667 20.1491 14.5597C19.5715 14.9479 18.8731 15.142 18.054 15.142C17.3106 15.142 16.6572 14.9716 16.0938 14.6307C15.5303 14.2898 15.0923 13.8139 14.7798 13.2031C14.4673 12.5876 14.3087 11.8679 14.304 11.044V4.09091H17.777V10.3622C17.7817 10.9541 17.938 11.4205 18.2457 11.7614C18.5535 12.1023 18.9725 12.2727 19.5028 12.2727C19.8485 12.2727 20.1586 12.197 20.4332 12.0455C20.7126 11.8892 20.9328 11.6643 21.0938 11.3707C21.2595 11.0724 21.3423 10.7126 21.3423 10.2912Z" fill="#004A74"/>
<path d="M8.96307 4.81534C8.91572 4.2945 8.70502 3.88967 8.33096 3.60085C7.96165 3.30729 7.43371 3.16051 6.74716 3.16051C6.29261 3.16051 5.91382 3.21969 5.61079 3.33806C5.30776 3.45643 5.08049 3.61979 4.92898 3.82812C4.77746 4.03172 4.69934 4.26609 4.6946 4.53125C4.68513 4.74905 4.72774 4.94081 4.82244 5.10653C4.92187 5.27225 5.06392 5.41903 5.24858 5.54687C5.43797 5.66998 5.66524 5.77888 5.9304 5.87357C6.19555 5.96827 6.49384 6.05113 6.82528 6.12215L8.07528 6.40625C8.79498 6.5625 9.42945 6.77083 9.97869 7.03125C10.5327 7.29166 10.9967 7.60179 11.3707 7.96164C11.7495 8.32149 12.036 8.73579 12.2301 9.20454C12.4242 9.67329 12.5237 10.1989 12.5284 10.7812C12.5237 11.6998 12.2917 12.4882 11.8324 13.1463C11.3731 13.8044 10.7126 14.3087 9.85085 14.6591C8.99384 15.0095 7.95928 15.1847 6.74716 15.1847C5.5303 15.1847 4.46969 15.0024 3.56534 14.6378C2.66098 14.2732 1.95786 13.7192 1.45596 12.9758C0.95407 12.2325 0.696021 11.2926 0.681816 10.1562H4.04829C4.0767 10.625 4.20218 11.0156 4.42471 11.3281C4.64725 11.6406 4.95265 11.8774 5.34091 12.0383C5.7339 12.1993 6.18845 12.2798 6.70454 12.2798C7.17803 12.2798 7.58049 12.2159 7.91193 12.0881C8.2481 11.9602 8.50615 11.7827 8.68608 11.5554C8.866 11.3281 8.95833 11.0677 8.96307 10.7741C8.95833 10.4995 8.8731 10.2651 8.70739 10.071C8.54167 9.87215 8.28598 9.7017 7.94034 9.55965C7.59943 9.41287 7.16382 9.27793 6.63352 9.15482L5.11363 8.79971C3.85416 8.51089 2.86221 8.0445 2.13778 7.40056C1.41335 6.75189 1.0535 5.87594 1.05824 4.77272C1.0535 3.8731 1.29498 3.08475 1.78267 2.40767C2.27036 1.73058 2.94507 1.20265 3.80682 0.823859C4.66856 0.445071 5.65104 0.255676 6.75426 0.255676C7.88115 0.255676 8.8589 0.447438 9.6875 0.83096C10.5208 1.20975 11.1671 1.74242 11.6264 2.42897C12.0857 3.11553 12.3201 3.91098 12.3295 4.81534H8.96307Z" fill="#004A74"/>
</svg>
