<svg width="109" height="17" viewBox="0 0 109 17" fill="none" xmlns="http://www.w3.org/2000/svg">
<path d="M6.74 16.24C5.80667 16.24 4.92667 16.0733 4.1 15.74C3.28667 15.3933 2.58 14.9067 1.98 14.28C1.39333 13.6533 0.953333 12.9133 0.66 12.06L3.2 10.92C3.57333 11.7333 4.08667 12.3733 4.74 12.84C5.40667 13.3067 6.14 13.54 6.94 13.54C7.36667 13.54 7.73333 13.4733 8.04 13.34C8.34667 13.2067 8.58667 13.0267 8.76 12.8C8.93333 12.56 9.02 12.28 9.02 11.96C9.02 11.6133 8.91333 11.32 8.7 11.08C8.48667 10.8267 8.15333 10.6267 7.7 10.48L4.78 9.52C3.59333 9.13333 2.7 8.58667 2.1 7.88C1.5 7.16 1.2 6.3 1.2 5.3C1.2 4.42 1.41333 3.64667 1.84 2.98C2.28 2.31333 2.88667 1.79333 3.66 1.42C4.44667 1.04667 5.34667 0.859999 6.36 0.859999C7.25333 0.859999 8.08 1.01333 8.84 1.32C9.6 1.62667 10.2533 2.06 10.8 2.62C11.36 3.18 11.78 3.85333 12.06 4.64L9.54 5.78C9.26 5.08667 8.84 4.54667 8.28 4.16C7.72 3.76 7.08 3.56 6.36 3.56C5.94667 3.56 5.58 3.62667 5.26 3.76C4.94 3.89333 4.69333 4.08667 4.52 4.34C4.34667 4.58 4.26 4.86 4.26 5.18C4.26 5.52667 4.37333 5.83333 4.6 6.1C4.82667 6.35333 5.16667 6.55333 5.62 6.7L8.48 7.62C9.68 8.00667 10.5733 8.54667 11.16 9.24C11.76 9.93333 12.06 10.78 12.06 11.78C12.06 12.6467 11.8333 13.42 11.38 14.1C10.9267 14.7667 10.3 15.2933 9.5 15.68C8.71333 16.0533 7.79333 16.24 6.74 16.24ZM17.9692 16.24C17.0892 16.24 16.3359 16.0533 15.7092 15.68C15.0959 15.2933 14.6292 14.76 14.3092 14.08C13.9892 13.4 13.8292 12.6067 13.8292 11.7V5.08H16.8292V11.46C16.8292 11.8733 16.9092 12.24 17.0692 12.56C17.2426 12.8667 17.4826 13.1067 17.7892 13.28C18.0959 13.4533 18.4426 13.54 18.8292 13.54C19.2292 13.54 19.5759 13.4533 19.8692 13.28C20.1759 13.1067 20.4092 12.8667 20.5692 12.56C20.7426 12.24 20.8292 11.8733 20.8292 11.46V5.08H23.8292V16H21.0292V13.84L21.1892 14.32C20.9359 14.9733 20.5226 15.46 19.9492 15.78C19.3892 16.0867 18.7292 16.24 17.9692 16.24ZM26.0219 16V5.08H28.8219V7.7L28.6219 7.32C28.8619 6.4 29.2552 5.78 29.8019 5.46C30.3619 5.12667 31.0219 4.96 31.7819 4.96H32.4219V7.56H31.4819C30.7485 7.56 30.1552 7.78667 29.7019 8.24C29.2485 8.68 29.0219 9.30667 29.0219 10.12V16H26.0219ZM37.1167 16.24C36.3301 16.24 35.6501 16.1133 35.0767 15.86C34.5034 15.6067 34.0634 15.2467 33.7567 14.78C33.4501 14.3 33.2967 13.7333 33.2967 13.08C33.2967 12.4667 33.4367 11.9267 33.7167 11.46C33.9967 10.98 34.4234 10.58 34.9967 10.26C35.5834 9.94 36.3101 9.71333 37.1767 9.58L40.5167 9.04V11.24L37.7167 11.74C37.2901 11.82 36.9634 11.96 36.7367 12.16C36.5101 12.3467 36.3967 12.62 36.3967 12.98C36.3967 13.3133 36.5234 13.5733 36.7767 13.76C37.0301 13.9467 37.3434 14.04 37.7167 14.04C38.2101 14.04 38.6434 13.9333 39.0167 13.72C39.3901 13.5067 39.6767 13.22 39.8767 12.86C40.0901 12.4867 40.1967 12.08 40.1967 11.64V8.8C40.1967 8.38667 40.0301 8.04 39.6967 7.76C39.3767 7.48 38.9367 7.34 38.3767 7.34C37.8434 7.34 37.3701 7.48667 36.9567 7.78C36.5567 8.07333 36.2634 8.46 36.0767 8.94L33.6767 7.8C33.8901 7.18667 34.2301 6.66 34.6967 6.22C35.1634 5.78 35.7234 5.44 36.3767 5.2C37.0301 4.96 37.7434 4.84 38.5167 4.84C39.4367 4.84 40.2501 5.00667 40.9567 5.34C41.6634 5.67333 42.2101 6.14 42.5967 6.74C42.9967 7.32667 43.1967 8.01333 43.1967 8.8V16H40.3967V14.24L41.0767 14.12C40.7567 14.6 40.4034 15 40.0167 15.32C39.6301 15.6267 39.1967 15.8533 38.7167 16C38.2367 16.16 37.7034 16.24 37.1167 16.24ZM50.4616 16.12C49.1416 16.12 48.1149 15.7667 47.3816 15.06C46.6616 14.34 46.3016 13.34 46.3016 12.06V7.68H44.4616V5.08H44.5616C45.1216 5.08 45.5482 4.94 45.8416 4.66C46.1482 4.38 46.3016 3.96 46.3016 3.4V2.6H49.3016V5.08H51.8616V7.68H49.3016V11.86C49.3016 12.2333 49.3682 12.5467 49.5016 12.8C49.6349 13.04 49.8416 13.22 50.1216 13.34C50.4016 13.46 50.7482 13.52 51.1616 13.52C51.2549 13.52 51.3616 13.5133 51.4816 13.5C51.6016 13.4867 51.7282 13.4733 51.8616 13.46V16C51.6616 16.0267 51.4349 16.0533 51.1816 16.08C50.9282 16.1067 50.6882 16.12 50.4616 16.12Z" fill="#004A74"/>
<path d="M53.8395 16V1.1H58.6995C60.3129 1.1 61.7129 1.42 62.8995 2.06C64.0862 2.7 65.0062 3.58 65.6595 4.7C66.3129 5.82 66.6395 7.1 66.6395 8.54C66.6395 9.98 66.3129 11.2667 65.6595 12.4C65.0062 13.52 64.0862 14.4 62.8995 15.04C61.7129 15.68 60.3129 16 58.6995 16H53.8395ZM56.9395 13.3H58.7795C59.7529 13.3 60.5929 13.1067 61.2995 12.72C62.0062 12.32 62.5529 11.7667 62.9395 11.06C63.3395 10.34 63.5395 9.5 63.5395 8.54C63.5395 7.56667 63.3395 6.72667 62.9395 6.02C62.5529 5.31333 62.0062 4.76667 61.2995 4.38C60.5929 3.99333 59.7529 3.8 58.7795 3.8H56.9395V13.3ZM70.6992 16V3.8H66.9192V1.1H77.5192V3.8H73.7992V16H70.6992ZM79.0544 16V1.1H89.0744V3.8H82.1544V7.18H88.6744V9.88H82.1544V13.3H89.0744V16H79.0544ZM90.8317 16V1.1H95.6917C97.3051 1.1 98.7051 1.42 99.8917 2.06C101.078 2.7 101.998 3.58 102.652 4.7C103.305 5.82 103.632 7.1 103.632 8.54C103.632 9.98 103.305 11.2667 102.652 12.4C101.998 13.52 101.078 14.4 99.8917 15.04C98.7051 15.68 97.3051 16 95.6917 16H90.8317ZM93.9317 13.3H95.7717C96.7451 13.3 97.5851 13.1067 98.2917 12.72C98.9984 12.32 99.5451 11.7667 99.9317 11.06C100.332 10.34 100.532 9.5 100.532 8.54C100.532 7.56667 100.332 6.72667 99.9317 6.02C99.5451 5.31333 98.9984 4.76667 98.2917 4.38C97.5851 3.99333 96.7451 3.8 95.7717 3.8H93.9317V13.3ZM105.617 16V1.1H108.717V16H105.617Z" fill="#2EA297"/>
</svg>
